<?xml version="1.0" encoding="utf-8"?>
<!-- Generator: Adobe Illustrator 19.2.1, SVG Export Plug-In . SVG Version: 6.00 Build 0)  -->
<svg version="1.1" id="Layer_1" xmlns="http://www.w3.org/2000/svg" xmlns:xlink="http://www.w3.org/1999/xlink" x="0px" y="0px"
	 viewBox="0 0 1321.2 1297.8" style="enable-background:new 0 0 1321.2 1297.8;" xml:space="preserve">
<style type="text/css">
	.st0{fill-rule:evenodd;clip-rule:evenodd;fill:#B6D8E6;}
	.st1{fill-rule:evenodd;clip-rule:evenodd;fill:#68AECB;}
	.st2{fill-rule:evenodd;clip-rule:evenodd;fill:#14688A;}
	.st3{fill-rule:evenodd;clip-rule:evenodd;fill:#229ACB;}
	.st4{fill-rule:evenodd;clip-rule:evenodd;fill:#1D84AE;}
	.st5{enable-background:new    ;}
	.st6{clip-path:url(#SVGID_2_);}
	.st7{fill:#FFFFFF;}
</style>
<g>
	<g>
		<path class="st0" d="M860,16.9c11.4-0.9,26.1,11.1,34.6,15.8c130.2,70.8,261,143.3,391.3,212.9c6.2,3.3,11.4,4.6,11.5,13.9
			c2.9,275.5-1.5,552.9-1.4,829c0,17.2,0.1,33.8,0,50.4c0,6.6,1.2,19.6-1.7,23.4c-3.1,4-14.7,4.3-20.1,5
			c-265.9,37.8-528.9,74.5-794.9,111.6c-16.8,2.3-28.5,4.5-40.9-2.4c-129.1-71.6-260.9-141.4-391.1-212.9
			c-8.1-4.5-28.2-11-29.6-20.5c-2.5-16.6-0.7-38-0.2-56.4c3.1-129.8,1-265.9,1-394.4c0-112.3,0.5-225,0.5-338.5
			c0-37.6-3.8-76.8,0.5-112.5c0.3-2.7,1-5,3.3-6.2c11.5-6.1,38.4-5.9,51.8-7.9c227-33,453.5-62.2,680.2-95.6
			C789.2,26.4,826.5,19.7,860,16.9z M754.4,34.1C526.1,65.3,299,99,70.6,130.4c-11.4,1.6-48.6,1.3-49,13.9
			c-3.3,105.2-0.5,208.7-0.5,314.9c0,183.7-1.2,368-1.2,550.9c0,11.1-3,31.4,2.6,36.8c6.3,6.1,17,9.9,25.1,14.3
			c118.7,65.3,238.4,129.4,357.7,194.5c14.1,7.7,35.2,25.7,53.8,23.2c253-34.3,507.6-69.5,760.7-106.8c21.9-3.2,48.3-3.1,69.3-9.8
			c2.4-0.8,3.4-2.4,3.8-4.5c2.7-13.9,0.2-33.2,0.2-48.7c0-278.1,1.6-557.6,1.7-835c0-7.8,1.3-18-2.9-21.7
			c-4.1-3.7-10.6-6.4-15.5-9.1c-126.3-68.7-255.6-139.6-382.5-208.1c-8.5-4.6-23.4-16.2-33.7-15.5C825.9,21.8,788.9,29.4,754.4,34.1
			z"/>
		<path class="st1" d="M860.2,19.5c10.2-0.7,25.2,10.9,33.7,15.5c126.9,68.5,256.2,139.4,382.5,208.1c4.9,2.7,11.4,5.4,15.5,9.1
			c4.2,3.7,2.9,13.9,2.9,21.7c0,277.4-1.7,556.9-1.7,835c0,15.6,2.5,34.8-0.2,48.7c-0.4,2.1-1.4,3.8-3.8,4.5
			c-21,6.7-47.4,6.6-69.3,9.8c-253.1,37.3-507.7,72.5-760.7,106.8c-18.6,2.5-39.6-15.5-53.8-23.2c-119.2-65-239-129.2-357.7-194.5
			c-8.1-4.4-18.7-8.3-25.1-14.3c-5.6-5.4-2.6-25.7-2.6-36.8c0-183,1.2-367.2,1.2-550.9c0-106.2-2.8-209.7,0.5-314.9
			c0.4-12.6,37.5-12.3,49-13.9C299,99,526.1,65.3,754.4,34.1C788.9,29.4,825.9,21.8,860.2,19.5z M448.8,1276.4
			c12.2,0.8,36.5-3.8,51.8-6c254.7-35.5,507.9-69.6,762.1-107c7.1-1.1,26.2-1.5,27.5-6.4c3.8-14.6,0.2-38.9,0.2-55.9
			c0-263.3,1.7-524.8,1.7-787.5c0-18.2,2.6-40-0.2-56.1c-1.4-8-24.7-16.4-32.3-20.5c-76.3-41.7-153.1-84.3-229.1-125
			c-55.2-29.5-108.1-62.7-163.9-88.9c-10-4.7-32.2,2.1-44,3.8C556.4,65.7,290.4,100.2,25,139.9c-1.3,2.1-1.2,2.6-1.2,5.3
			c-2,147.2-0.7,296.5-0.7,448.2c0,131,2.4,261.4-0.7,392.3c-0.4,18.4-2.4,39,0,55.7c1.1,7.7,19.8,14.2,27,18.2
			C182.6,1133.1,315.4,1203.8,448.8,1276.4z"/>
		<path class="st2" d="M26.9,141.9C161.8,210.3,290.7,284.8,424,355.7c6.5,3.5,27.2,11.3,27.7,18.9c2.3,36.9-0.2,74.9-0.2,112.3
			c0,253-1.2,504.8-1.2,758.3c0,6,1,27.7-1.4,28.7c-2.7,1-11.1-4.9-14.1-6.5c-127.9-68.8-254.6-140.1-383-208.6
			c-6.7-3.6-26.9-11.1-27.7-17.7c-2.2-17.2,0-37.5,0-56.4c0-261.6,1.4-523.5,1.4-785.5c0-17.1-3.5-42.2,0.5-55.7
			C26.1,142.8,26.2,142.3,26.9,141.9z"/>
		<path class="st3" d="M448.8,1276.4c2.6,0.6,4.4-1,4.8-3.1c2.9-16,0.2-37.9,0.2-56.1c0-263.1,1.4-524.5,1.4-787.9
			c0-16.5-3.6-41.6,0.7-55.4c0.5-1.5,1.1-2.1,2.6-2.6c14.3-5.1,35.1-5,51.4-7.4c223.4-32.9,446.3-61.2,669.9-94.1
			c35.1-5.2,72.7-9.7,105.4-15.3c-40.7-26.5-85.3-48.6-128.5-72.2C1069.9,135,983,86.7,896.3,40.3c-10.7-5.7-22-15.3-33.2-17.2
			c-12.5-2.2-31.1,3.8-44.2,5.5C554.6,62,291.3,106.1,25,139.9c265.4-39.8,531.5-74.3,797.7-113c11.8-1.7,34-8.5,44-3.8
			c55.8,26.1,108.7,59.4,163.9,88.9c76,40.7,152.8,83.3,229.1,125c7.6,4.1,30.8,12.5,32.3,20.5c2.8,16.1,0.2,38,0.2,56.1
			c0.1,262.7-1.7,524.2-1.7,787.5c0,17,3.6,41.3-0.2,55.9c-1.3,4.9-20.3,5.4-27.5,6.4c-254.3,37.5-507.4,71.5-762.1,107
			C485.4,1272.6,461,1277.3,448.8,1276.4z"/>
		<path class="st4" d="M448.8,1276.4c-133.4-72.7-266.2-143.3-399.5-216.9c-7.1-3.9-25.9-10.5-27-18.2c-2.4-16.6-0.4-37.3,0-55.7
			c3.1-130.9,0.7-261.3,0.7-392.3c0-151.7-1.3-301,0.7-448.2c0-2.6-0.1-3.2,1.2-5.3C291.3,106.1,554.6,62,818.9,28.6
			c13.1-1.7,31.7-7.7,44.2-5.5c11.2,1.9,22.6,11.5,33.2,17.2c86.7,46.4,173.6,94.7,260.4,141.9c43.3,23.5,87.8,45.7,128.5,72.2
			c-32.7,5.6-70.3,10.1-105.4,15.3c-223.6,32.9-446.5,61.2-669.9,94.1c-16.3,2.4-37.1,2.3-51.4,7.4c-1.5,0.5-2.2,1.1-2.6,2.6
			c-4.4,13.9-0.7,38.9-0.7,55.4c0,263.4-1.4,524.8-1.4,787.9c0,18.2,2.7,40.1-0.2,56.1C453.2,1275.5,451.5,1277,448.8,1276.4z
			 M25.9,143.5c-3.9,13.5-0.5,38.6-0.5,55.7c0,262.1-1.4,523.9-1.4,785.5c0,18.9-2.2,39.2,0,56.4c0.9,6.6,21.1,14.1,27.7,17.7
			c128.4,68.5,255.1,139.8,383,208.6c3,1.6,11.4,7.5,14.1,6.5c2.4-0.9,1.4-22.7,1.4-28.7c0-253.5,1.2-505.3,1.2-758.3
			c0-37.4,2.5-75.4,0.2-112.3c-0.5-7.5-21.2-15.4-27.7-18.9C290.7,284.8,161.8,210.3,26.9,141.9C26.2,142.3,26.1,142.8,25.9,143.5z"
			/>
	</g>
	<g>
		<g>
			<g class="st5">
				<defs>
					<polygon id="SVGID_1_" class="st5" points="458.1,736 458.8,375.2 1135.1,280.1 1134.4,641 					"/>
				</defs>
				<clipPath id="SVGID_2_">
					<use xlink:href="#SVGID_1_"  style="overflow:visible;"/>
				</clipPath>
				<g class="st6">
					<g>
						<g>
							<g>
								<path class="st7" d="M572.5,563.4c-21.3,3-36-5.5-44.1-25.6c-4.5-10.7-6.7-23.4-6.7-38c0-16.9,2.2-31.4,6.4-43.5
									c8.1-22.8,22.8-35.7,44-38.6c15.6-2.2,28,2.3,37.2,13.4c9.3,11.1,13.9,28.6,13.8,52.4c0,25.3-5,44.5-14.8,57.4
									C598.7,553.9,586.7,561.4,572.5,563.4 M557.6,362.5c-31.5,4.4-55.9,20.6-73.1,48.4c-17.2,27.8-25.9,60.4-26,97.7
									c-0.1,38.7,8.8,68.1,26.6,88.2c17.8,20.1,41.6,28.1,71.5,23.9c19.3-2.7,35.1-9.9,47.2-21.6c6.7-6.3,13-15.2,18.8-26.8
									l0,16.1c0,24-2.5,41.3-7.3,52.1c-7.4,16.8-22.1,26.8-44,29.9c-15.5,2.2-26.5,0.7-33-4.3c-3.8-2.8-6.6-8-8.3-15.4l-66.1,9.3
									c1.9,24.7,12.3,42.1,31,52c18.8,10,43,12.8,72.7,8.7c49.2-6.9,82.5-25.7,99.9-56.4c10.1-17.8,15.2-43,15.3-75.4l0.4-238.1
									l-59.3,8.3l-0.1,36.2c-9.1-16.4-21-26.8-35.7-31.4C579.4,361.3,569.3,360.8,557.6,362.5"/>
								<path class="st7" d="M796.3,327.8c-30.6,4.3-54.4,16-71.3,35c-16.9,19-25.4,40.1-25.4,63.3c0,19.7,5.3,33.9,16.1,42.9
									c10.8,9.1,29.4,15.3,55.8,18.6c36.7,4.2,57.9,7.8,63.6,10.9c5.7,3,8.5,8.2,8.5,15.6c0,7.7-3.6,13.9-10.6,18.8
									c-7.1,4.8-16.6,8.1-28.6,9.8c-20.4,2.9-34.4,0.5-42-7.2c-4.3-4.3-7-12.2-8.3-23.7l-61.7,8.7c0,25.8,8.6,45.8,26.1,60
									c17.4,14.2,44.4,18.7,81.1,13.6c35.9-5,62.5-16.7,79.7-34.8c17.2-18.2,25.8-39.7,25.9-64.5c0-18.9-5.9-33.8-17.8-44.7
									c-12.1-10.7-30.2-17.5-54.4-20.2c-36.3-3.5-57.5-6.6-63.4-9.3c-6-2.5-9-7.6-9-15.1c0-6,2.8-11.6,8.5-16.8
									c5.6-5.2,15.1-8.8,28.4-10.7c16.1-2.3,27.5,0.6,34.2,8.5c3.6,4.4,5.8,10.8,6.6,19.1l60.8-8.5c-2.6-30.3-13.1-50.4-31.4-60.4
									C849.1,326.6,825.4,323.7,796.3,327.8"/>
								<path class="st7" d="M1006.9,516.4c-8.4,1.2-15.5-0.3-21.3-4.5c-5.8-4.2-8.7-11.8-8.7-23.1c0-12.6,4.8-22.5,14.4-29.9
									c5.7-4.3,15-8.6,28-12.9l13.8-4.7c6.9-2.4,12.4-4.6,16.3-6.8c4-2.2,7.9-4.8,11.8-8l0,24.4c-0.5,22-6.3,38-17.5,47.8
									C1032.5,508.7,1020.2,514.5,1006.9,516.4 M1024.2,296.9c-39.3,5.5-67,20.5-83.2,44.8c-10.2,15.6-15.9,34.4-17.2,56.5
									l58.7-8.2c1.5-9.9,4.4-18,8.7-24.2c6.1-8.5,16.4-13.8,30.9-15.9c13-1.8,22.8-1.3,29.5,1.7c6.7,3,10,9.6,10,19.9
									c0,8.4-4.4,15.3-13.1,20.5c-4.9,3-13,6.1-24.3,9.2l-20.8,5.7c-23.6,6.5-41.6,14.4-53.8,23.7c-22.2,16.9-33.4,40.8-33.4,71.7
									c0,23.8,6.8,41.2,20.6,52.2c13.8,11,31.3,15.1,52.4,12.1c16.6-2.3,31.5-8.5,44.7-18.5c11-8.5,20.8-18.2,29.2-29.2
									c0.4,5.6,1,10.6,1.7,15c0.7,4.4,2,8.9,3.8,13.7l66.1-9.3l0-9.7c-4-1.4-7-3.6-8.9-6.3c-2-2.8-3.2-8.5-3.6-17
									c-0.3-11.3-0.4-21-0.4-29l0.2-115.1c0.1-30.2-9.8-49.4-29.7-57.5C1072.4,295.5,1049.7,293.3,1024.2,296.9"/>
							</g>
						</g>
					</g>
				</g>
			</g>
		</g>
	</g>
</g>
</svg>
