<?xml version="1.0" encoding="utf-8"?>
<!-- Generator: Adobe Illustrator 19.2.1, SVG Export Plug-In . SVG Version: 6.00 Build 0)  -->
<svg version="1.1" id="Layer_1" xmlns="http://www.w3.org/2000/svg" xmlns:xlink="http://www.w3.org/1999/xlink" x="0px" y="0px"
	 viewBox="0 0 1339.9 1294.5" style="enable-background:new 0 0 1339.9 1294.5;" xml:space="preserve">
<style type="text/css">
	.st0{fill-rule:evenodd;clip-rule:evenodd;fill:#D89A87;}
	.st1{fill-rule:evenodd;clip-rule:evenodd;fill:#C52328;}
	.st2{fill-rule:evenodd;clip-rule:evenodd;fill:#941D1E;}
	.st3{fill-rule:evenodd;clip-rule:evenodd;fill:#A61F23;}
	.st4{fill-rule:evenodd;clip-rule:evenodd;fill:#85191B;}
	.st5{enable-background:new    ;}
	.st6{clip-path:url(#SVGID_2_);}
	.st7{fill:#FFFFFF;}
</style>
<g>
	<g>
		<path class="st0" d="M30.1,191.9c0,20.5,0,40.9,0,61.4c-0.1,0-0.2,0-0.2,0C30,232.8,29.6,211.9,30.1,191.9z"/>
		<path class="st1" d="M1309.1,255.5c0.1,0,0.2,0,0.2,0c0,37,0,73.9,0,110.9c-0.5,19.9-0.1,40.8-0.2,61.1c0,20.5,0,40.9,0,61.4
			c-0.5,19.9-0.1,40.8-0.2,61.1c0,20.5,0,40.9,0,61.4c-0.5,19.9-0.1,40.8-0.2,61.1c0,20.5,0,40.9,0,61.4c-0.5,20-0.1,41-0.2,61.4
			c0,20.4,0,40.8,0,61.1c-0.5,20-0.1,41-0.2,61.4c0,20.4,0,40.8,0,61.1c-0.5,20-0.1,41-0.2,61.4c0,20.5,0,40.9,0,61.4
			c-0.5,19.9-0.1,40.8-0.2,61.1c-0.2,2.8,0.7,5.2-0.9,6.2c-0.6,0.3-2.6,0.4-3.2,0.5c-278.8,38.1-561.8,79.4-840.8,118.2
			c-0.3,0-0.6,0-0.9,0c0-3.1,0-6.2,0-9.4c0-10.2,0-20.4,0-30.6c0-10.3,0-20.5,0-30.8c0.5-19.9,0.1-40.8,0.2-61.1
			c0-10.2,0-20.4,0-30.6c0-10.3,0-20.5,0-30.8c0.5-19.9,0.1-40.8,0.2-61.1c0-10.2,0-20.4,0-30.6c0-10.3,0-20.5,0-30.8
			c0.5-19.9,0.1-40.8,0.2-61.1c0-10.2,0-20.4,0-30.6c0-10.3,0-20.5,0-30.8c0.5-19.9,0.1-40.8,0.2-61.1c0-10.3,0-20.5,0-30.8
			c0-10.2,0-20.4,0-30.6c0.5-20,0.1-41,0.2-61.4c0-10.2,0-20.4,0-30.6c0-10.3,0-20.5,0-30.8c0.5-19.9,0.1-40.8,0.2-61.1
			c0-10.2,0-20.4,0-30.6c0-10.3,0-20.5,0-30.8c0.4-9.4,0.4-20.3,0-29.7c0-0.1,0-0.2,0-0.2c0.5-10,0.1-20.9,0.2-31.3
			c0-10.2,0-20.4,0-30.6c0-5.2,0-10.3,0-15.5C745.8,334.9,1027.1,295.4,1309.1,255.5z"/>
		<path class="st0" d="M29.9,314.6c0,20.4,0,40.8,0,61.1c-0.1,0-0.2,0-0.2,0C29.8,355.4,29.4,334.5,29.9,314.6z"/>
		<path class="st0" d="M1309.4,366.4c0,20.4,0,40.8,0,61.1c-0.1,0-0.2,0-0.2,0C1309.3,407.2,1308.8,386.3,1309.4,366.4z"/>
		<path class="st2" d="M463.5,389.9c0,10.2,0,20.4,0,30.6c-0.1,0-0.2,0-0.2,0C463.5,410.3,463,399.6,463.5,389.9z"/>
		<path class="st3" d="M463.3,420.4c0.1,0,0.2,0,0.2,0c-0.2,10.3,0.3,21.3-0.2,31.3C463.3,441.3,463.3,430.8,463.3,420.4z"/>
		<path class="st0" d="M29.7,437.1c0,20.4,0,40.8,0,61.1c-0.1,0-0.2,0-0.2,0C29.6,477.9,29.1,457,29.7,437.1z"/>
		<path class="st3" d="M463.3,451.9c0.4,9.4,0.4,20.3,0,29.7C463.3,471.7,463.3,461.8,463.3,451.9z"/>
		<path class="st0" d="M1309.1,488.9c-0.2,20.3,0.3,41.2-0.2,61.1C1309.1,529.7,1308.6,508.8,1309.1,488.9z"/>
		<path class="st2" d="M463.3,512.4c0,10.2,0,20.4,0,30.6c-0.1,0-0.2,0-0.2,0C463.2,532.8,462.8,522.1,463.3,512.4z"/>
		<path class="st3" d="M463.1,542.9c0.1,0,0.2,0,0.2,0c-0.2,20.3,0.3,41.2-0.2,61.1C463.1,583.7,463.1,563.3,463.1,542.9z"/>
		<path class="st0" d="M29.4,559.6c0,20.4,0,40.8,0,61.1c-0.1,0-0.2,0-0.2,0C29.4,600.4,28.9,579.5,29.4,559.6z"/>
		<path class="st0" d="M1308.9,611.4c-0.2,20.3,0.3,41.2-0.2,61.1C1308.8,652.2,1308.4,631.3,1308.9,611.4z"/>
		<path class="st2" d="M463.1,634.8c0,10.2,0,20.4,0,30.6c-0.1,0-0.2,0-0.2,0C463,655.3,462.5,644.6,463.1,634.8z"/>
		<path class="st3" d="M462.8,665.4c0.1,0,0.2,0,0.2,0c-0.2,20.4,0.3,41.4-0.2,61.4C462.8,706.3,462.8,685.9,462.8,665.4z"/>
		<path class="st0" d="M29.2,682.1c0,20.4,0,40.8,0,61.1c-0.1,0-0.2,0-0.2,0C29.1,722.9,28.7,702,29.2,682.1z"/>
		<path class="st0" d="M1308.7,733.8c-0.2,20.4,0.3,41.4-0.2,61.4C1308.6,774.8,1308.1,753.8,1308.7,733.8z"/>
		<path class="st2" d="M462.8,757.3c0,10.3,0,20.5,0,30.8c-0.1,0-0.2,0-0.2,0C462.8,777.9,462.3,767.2,462.8,757.3z"/>
		<path class="st3" d="M462.6,788.1c0.1,0,0.2,0,0.2,0c-0.2,20.3,0.3,41.2-0.2,61.1C462.6,828.9,462.6,808.5,462.6,788.1z"/>
		<path class="st0" d="M29,804.6c0,20.5,0,40.9,0,61.4c-0.1,0-0.2,0-0.2,0C28.9,845.5,28.4,824.6,29,804.6z"/>
		<path class="st0" d="M1308.4,856.3c-0.2,20.4,0.3,41.4-0.2,61.4C1308.4,897.3,1307.9,876.3,1308.4,856.3z"/>
		<path class="st2" d="M462.6,880.1c0,10.2,0,20.4,0,30.6c-0.1,0-0.2,0-0.2,0C462.5,900.5,462.1,889.8,462.6,880.1z"/>
		<path class="st3" d="M462.4,910.6c0.1,0,0.2,0,0.2,0c-0.2,20.3,0.3,41.2-0.2,61.1C462.4,951.4,462.4,931,462.4,910.6z"/>
		<path class="st0" d="M28.5,927.1c0.1,0,0.2,0,0.2,0c0,20.5,0,40.9,0,61.4c-0.1,0-0.2,0-0.2,0C28.5,968,28.5,947.5,28.5,927.1z"/>
		<path class="st0" d="M1308.2,978.8c-0.2,20.4,0.3,41.4-0.2,61.4C1308.1,1019.8,1307.7,998.8,1308.2,978.8z"/>
		<path class="st2" d="M462.4,1002.6c0,10.2,0,20.4,0,30.6c-0.1,0-0.2,0-0.2,0C462.3,1023,461.9,1012.3,462.4,1002.6z"/>
		<path class="st3" d="M462.2,1033.1c0.1,0,0.2,0,0.2,0c-0.2,20.3,0.3,41.2-0.2,61.1C462.2,1073.9,462.2,1053.5,462.2,1033.1z"/>
		<path class="st0" d="M1308,1101.6c-0.2,20.3,0.3,41.2-0.2,61.1C1307.9,1142.4,1307.5,1121.5,1308,1101.6z"/>
		<path class="st2" d="M462.2,1125.1c0,10.2,0,20.4,0,30.6c-0.1,0-0.2,0-0.2,0C462.1,1145.5,461.6,1134.8,462.2,1125.1z"/>
		<path class="st3" d="M461.9,1155.6c0.1,0,0.2,0,0.2,0c-0.2,20.3,0.3,41.2-0.2,61.1C461.9,1196.4,461.9,1176,461.9,1155.6z"/>
		<path class="st2" d="M461.9,1247.6c0,10.2,0,20.4,0,30.6c-0.1,0-0.2,0-0.2,0C461.9,1268,461.4,1257.3,461.9,1247.6z"/>
		<path class="st3" d="M461.7,1278.1c0.1,0,0.2,0,0.2,0c0,3.1,0,6.2,0,9.4c-0.1,0-0.2,0-0.2,0
			C461.7,1284.4,461.7,1281.2,461.7,1278.1z"/>
		<path class="st3" d="M875.3,19.9c0.4,0,0.8,0,1.1,0c144.1,78.7,288.7,156.9,432.7,235.6c-282,39.9-563.4,79.4-845.6,118.8
			C319,296.2,174.6,216.8,30.3,139.2c-0.1,0-0.2,0-0.2,0c7.4-1.8,18.2-2.9,26.5-4.1c61.4-9,123.5-17.3,184.8-26
			c141.2-20,281.4-39.5,422.5-59.3c52.8-7.4,105.5-15.1,158.3-22.4C839.8,25,857.9,22.6,875.3,19.9z"/>
		<path class="st4" d="M30.3,139.2C174.6,216.8,319,296.2,463.5,374.3c0,5.2,0,10.3,0,15.5c-0.5,9.7-0.1,20.5-0.2,30.6
			c0,10.4,0,20.8,0,31.3c0,0.1,0,0.2,0,0.2c0,9.9,0,19.8,0,29.7c0,10.3,0,20.5,0,30.8c-0.5,9.7-0.1,20.5-0.2,30.6
			c0,20.4,0,40.8,0,61.1c0,10.3,0,20.5,0,30.8c-0.5,9.7-0.1,20.5-0.2,30.6c0,20.5,0,40.9,0,61.4c0,10.2,0,20.4,0,30.6
			c-0.5,9.8-0.1,20.6-0.2,30.8c0,20.4,0,40.8,0,61.1c0,10.3,0,20.5,0,30.8c-0.5,9.7-0.1,20.5-0.2,30.6c0,20.4,0,40.8,0,61.1
			c0,10.3,0,20.5,0,30.8c-0.5,9.7-0.1,20.5-0.2,30.6c0,20.4,0,40.8,0,61.1c0,10.3,0,20.5,0,30.8c-0.5,9.7-0.1,20.5-0.2,30.6
			c0,20.4,0,40.8,0,61.1c0,10.3,0,20.5,0,30.8c-0.5,9.7-0.1,20.5-0.2,30.6c0,3.1,0,6.2,0,9.4c-0.1,0-0.2,0-0.2,0
			c-144.2-78.7-288.7-157.1-433-235.6c0-10.9,0-21.9,0-32.8c0.5-9.7,0.1-20.5,0.2-30.6c0-20.5,0-40.9,0-61.4c0-10.2,0-20.4,0-30.6
			c0.5-9.7,0.1-20.5,0.2-30.6c0-20.5,0-40.9,0-61.4c0-10.2,0-20.4,0-30.6c0.5-9.8,0.1-20.6,0.2-30.8c0-20.4,0-40.8,0-61.1
			c0-10.2,0-20.4,0-30.6c0.5-9.8,0.1-20.6,0.2-30.8c0-20.4,0-40.8,0-61.1c0-10.3,0-20.5,0-30.8c0.5-9.7,0.1-20.5,0.2-30.6
			c0-20.4,0-40.8,0-61.1c0-10.3,0-20.5,0-30.8c0.5-9.7,0.1-20.5,0.2-30.6c0-20.4,0-40.8,0-61.1c0-10.3,0-20.5,0-30.8
			c0.5-9.7,0.1-20.5,0.2-30.6c0-20.5,0-40.9,0-61.4c0-10.2,0-20.4,0-30.6C30.6,154.4,30.2,146.5,30.3,139.2z"/>
		<path class="st1" d="M30.1,161.3c0-7.4,0-14.8,0-22.1c0.1,0,0.2,0,0.2,0C30.2,146.5,30.6,154.4,30.1,161.3z"/>
		<path class="st1" d="M29.9,283.8c0-10.2,0-20.4,0-30.6c0.1,0,0.2,0,0.2,0C30,263.3,30.4,274.1,29.9,283.8z"/>
		<path class="st1" d="M29.7,406.3c0-10.2,0-20.4,0-30.6c0.1,0,0.2,0,0.2,0C29.7,385.8,30.2,396.6,29.7,406.3z"/>
		<path class="st1" d="M29.7,498.2c-0.2,10.1,0.3,20.8-0.2,30.6c0-10.2,0-20.4,0-30.6C29.5,498.2,29.6,498.2,29.7,498.2z"/>
		<path class="st1" d="M29.2,651.5c0-10.3,0-20.5,0-30.8c0.1,0,0.2,0,0.2,0C29.3,630.9,29.7,641.7,29.2,651.5z"/>
		<path class="st1" d="M29,774c0-10.3,0-20.5,0-30.8c0.1,0,0.2,0,0.2,0C29.1,753.4,29.5,764.2,29,774z"/>
		<path class="st1" d="M28.7,896.5c0-10.2,0-20.4,0-30.6c0.1,0,0.2,0,0.2,0C28.8,876,29.3,886.8,28.7,896.5z"/>
		<path class="st1" d="M28.5,1019c0-10.2,0-20.4,0-30.6c0.1,0,0.2,0,0.2,0C28.6,998.5,29.1,1009.3,28.5,1019z"/>
	</g>
	<g>
		<g>
			<g class="st5">
				<defs>
					<polygon id="SVGID_1_" class="st5" points="611.2,1264 611.9,903.4 1305.6,805.9 1304.9,1166.5 					"/>
				</defs>
				<clipPath id="SVGID_2_">
					<use xlink:href="#SVGID_1_"  style="overflow:visible;"/>
				</clipPath>
				<g class="st6">
					<g>
						<g>
							<g>
								<path class="st7" d="M744.9,969.8c-19.9,2.8-36.2,10.3-49.2,22.7c-7.2,6.9-14.9,17.6-23,32.1l0.1-38l-61.1,8.6l-0.5,260
									l63.1-8.9l0.3-141c0-16.1,2.1-29.6,6.3-40.5c7.9-20.7,22.5-32.6,43.8-35.5c17.3-2.4,29,2.6,35.1,15.1c3.4,6.9,5,17.1,5,30.8
									l-0.3,158.4l64.7-9.1l0.3-175.4c0.1-32.6-7.8-54.9-23.6-66.8C790,970.5,769.7,966.3,744.9,969.8"/>
								<path class="st7" d="M946.7,940.2c-31.8,4.5-56.5,16.6-74,36.3c-17.6,19.8-26.3,41.7-26.4,65.7c0,20.4,5.5,35.2,16.7,44.5
									c11.2,9.4,30.5,15.9,57.9,19.3c38.1,4.4,60.1,8.1,66,11.3c5.9,3.2,8.8,8.6,8.8,16.2c0,8-3.7,14.4-11.1,19.5
									c-7.3,5-17.2,8.4-29.7,10.2c-21.2,3-35.7,0.5-43.5-7.5c-4.4-4.5-7.3-12.7-8.6-24.6l-64,9c-0.1,26.8,9,47.5,27.1,62.2
									c18.1,14.7,46.1,19.5,84.1,14.1c37.3-5.2,64.8-17.3,82.7-36.1c17.8-18.8,26.8-41.1,26.8-66.9c0-19.6-6.1-35.1-18.5-46.4
									c-12.5-11.2-31.3-18.1-56.5-21c-37.7-3.7-59.6-6.8-65.8-9.6c-6.2-2.6-9.3-7.8-9.3-15.7c0-6.2,3-12,8.8-17.5
									c5.9-5.5,15.7-9.1,29.4-11.1c16.7-2.4,28.6,0.6,35.5,8.9c3.7,4.6,6,11.2,6.8,19.8l63.1-8.9c-2.7-31.5-13.6-52.4-32.6-62.7
									C1001.5,939,976.9,936,946.7,940.2"/>
								<path class="st7" d="M1187,1125c-18.9,2.7-33-2.7-42.1-16.1c-9.2-13.4-13.8-31.2-13.7-53.5c0-19,2.3-34.7,6.8-47.3
									c8.7-23.7,24.5-37.1,47.6-40.4c22.8-3.2,38.4,6.1,46.8,27.8c4.4,11.5,6.6,26.5,6.6,44.9c0,23.1-4.6,42.4-13.7,57.8
									C1216.2,1113.9,1203.4,1122.7,1187,1125 M1133.3,830.1l-63.1,8.9l-0.7,351.7l62.2-8.7l0.1-32.7
									c8.4,11.6,16.3,19.4,23.5,23.4c12.2,6.9,28.2,9,48.3,6.1c31.9-4.5,56.8-21.3,74.6-50.4c17.9-29.1,26.8-63.9,26.9-104.4
									c0.1-39-8.9-69.6-26.9-91.8c-18-22.2-42.9-31-74.9-26.5c-17.7,2.5-32.2,8.5-43.7,18.1c-9.7,7.7-18.5,18.2-26.6,31.4
									L1133.3,830.1"/>
							</g>
						</g>
					</g>
				</g>
			</g>
		</g>
	</g>
</g>
</svg>
